<svg xmlns="http://www.w3.org/2000/svg" viewBox="0 0 500 500"><g id="freepik--background-complete--inject-25"><polygon points="426.63 327.45 413.7 381.74 419.07 381.73 432.02 327.97 426.63 327.45" style="fill:#e0e0e0"></polygon><polygon points="449.79 327.45 462.32 381.58 467.42 381.58 455.3 327.45 449.79 327.45" style="fill:#e0e0e0"></polygon><polygon points="418.06 286.05 425.29 324 433.5 324 425.78 286.05 418.06 286.05" style="fill:#e0e0e0"></polygon><polygon points="292.15 327.45 281.94 381.79 287.23 381.77 297.89 327.45 292.15 327.45" style="fill:#e0e0e0"></polygon><polygon points="313.93 327.45 325.77 381.79 330.98 381.79 319.54 327.45 313.93 327.45" style="fill:#e0e0e0"></polygon><polygon points="283.58 286.05 290.81 324 299.03 324 291.31 286.05 283.58 286.05" style="fill:#e0e0e0"></polygon><polygon points="267.32 282.6 268.8 289.5 433.75 289.5 431.82 282.6 267.32 282.6" style="fill:#ebebeb"></polygon><polygon points="270.47 296 272.21 302.89 436.05 302.89 434.56 296 270.47 296" style="fill:#ebebeb"></polygon><polygon points="273.73 309.87 275.35 316.77 438.68 316.77 437.13 309.87 273.73 309.87" style="fill:#ebebeb"></polygon><rect x="286.21" y="324" width="176.12" height="6.9" style="fill:#ebebeb"></rect><path d="M482.41,381.13c0,.14-99.73.26-222.74.26s-222.76-.12-222.76-.26,99.72-.26,222.76-.26S482.41,381,482.41,381.13Z" style="fill:#e0e0e0"></path><path d="M282.19,238.52c.54-3.93-5-7.16-9.17-7.49-2-.16-4,.14-5.92-.52-4.08-1.42-5.71-6.68-9.68-8.36-3-1.25-6.39-.13-9.28,1.32s-5.72,3.27-8.94,3.48c-2.8.18-5.84-.86-8.29.51-1.83,1-2.79,3.12-4.47,4.36a10.64,10.64,0,0,1-5.83,1.58,16.24,16.24,0,0,0-6,1c-1.86.85-3.4,2.81-3,4.82Z" style="fill:#f5f5f5"></path><path d="M452.46,208.22c.73-5.31-6.76-9.67-12.39-10.13-2.68-.21-5.47.2-8-.69-5.51-1.92-7.71-9-13.09-11.3-4-1.7-8.64-.19-12.54,1.77s-7.74,4.43-12.1,4.71c-3.78.24-7.89-1.16-11.21.69-2.46,1.38-3.76,4.22-6,5.9s-5.13,2-7.89,2.14-5.62.17-8.14,1.33-4.59,3.81-4.07,6.52Z" style="fill:#fafafa"></path><path d="M449.55,121.62c.54-3.93-5-7.15-9.16-7.49-2-.16-4.05.14-5.93-.51-4.08-1.42-5.7-6.69-9.68-8.36-3-1.26-6.39-.14-9.27,1.31s-5.73,3.28-8.95,3.48c-2.8.18-5.84-.86-8.29.51-1.83,1-2.78,3.12-4.47,4.36a10.57,10.57,0,0,1-5.83,1.59,16.47,16.47,0,0,0-6,1c-1.86.85-3.4,2.82-3,4.83Z" style="fill:#ebebeb"></path><path d="M322.71,97.89c.72-5.19-6.62-9.47-12.13-9.91-2.63-.22-5.36.19-7.85-.68-5.39-1.88-7.55-8.85-12.81-11.07-3.93-1.66-8.47-.18-12.28,1.74s-7.59,4.33-11.85,4.61c-3.71.23-7.73-1.14-11,.67-2.41,1.35-3.68,4.13-5.91,5.78s-5,1.94-7.72,2.09-5.51.18-8,1.3-4.5,3.74-4,6.39Z" style="fill:#f5f5f5"></path><path d="M89,464.36l15.75-46L105.18,232l-11-80L74.73,136.14,41.49,146.59,8.74,134.67l4.47-4.47,28.28,7.45,37.9-13.48a13.86,13.86,0,0,1,14,2.85l8.37,7.71L79.59,45l15.5-16.75s29,106.44,30.14,104.21,29.85-58.06,29.85-58.06l46.83-22.11,7.19-12.16,2.79,2.26-7.2,14.89L170.88,74.38l27.69,13.4-.71,2.65-27-10.1-7.86,1-28.73,71.22,12.86,194.35-3.48,102.19,16.47,15.59Z" style="fill:#ebebeb"></path><path d="M116.63,401.89s0,.22,0,.65,0,1.1,0,1.92c0,1.67.13,4.14.48,7.25a72.41,72.41,0,0,0,7.53,24.84l-.4.06a75.45,75.45,0,0,0,1-21.3,73.94,73.94,0,0,0-2.05-11.66c-.49-2-1.12-3.93-1.79-5.9a13.35,13.35,0,0,0-3-5.34,4.65,4.65,0,0,0-3.62-1.37,5.4,5.4,0,0,0-3.41,1.85c-1.86,2-2.15,4.85-1.89,7.43s.86,5.2,1.29,7.72.93,5,1.37,7.4l4.7,25.59c1.31,7.27,2.38,13.16,3.12,17.27.36,2,.63,3.59.82,4.7.09.51.16.92.21,1.22a2.7,2.7,0,0,1,0,.42,2.13,2.13,0,0,1-.11-.41c-.06-.3-.14-.7-.25-1.22-.21-1.09-.52-2.67-.92-4.68-.78-4.09-1.9-10-3.28-17.23l-4.81-25.58q-.68-3.61-1.39-7.39c-.44-2.53-1-5.07-1.31-7.76a14.08,14.08,0,0,1,.15-4.09,7.85,7.85,0,0,1,1.87-3.74,5.92,5.92,0,0,1,3.74-2,5.15,5.15,0,0,1,4,1.52,13.72,13.72,0,0,1,3.14,5.54c.67,2,1.3,3.95,1.79,5.94a72.76,72.76,0,0,1,2,11.75,75.07,75.07,0,0,1-1,21.42l-.12.61-.28-.55a71.42,71.42,0,0,1-7.4-25,69.84,69.84,0,0,1-.36-7.28c0-.84,0-1.49,0-1.92S116.63,401.89,116.63,401.89Z" style="fill:#e0e0e0"></path><path d="M139.7,248a19.91,19.91,0,0,1,.5,2.27,26.69,26.69,0,0,1,.26,6.66,39.68,39.68,0,0,1-2.34,10.28,68,68,0,0,1-6.27,12.48c-2.7,4.42-6,9.05-9.07,14.27a71.88,71.88,0,0,0-4.29,8.35,59.7,59.7,0,0,0-3.13,9.44A62.28,62.28,0,0,0,113.94,333a73.93,73.93,0,0,0,6.25,22c3.15,7.23,6.84,14,10.13,20.68a135.6,135.6,0,0,1,8.16,19.86,140.58,140.58,0,0,1,4.57,18.89c.53,3,.88,5.92,1.24,8.72s.53,5.52.64,8.1a142.17,142.17,0,0,1-.7,24.48l-.48,3.82c-.18,1.09-.34,2-.46,2.78L143,464c-.07.39-.12.58-.12.58s0-.2.07-.58.14-1,.24-1.72.25-1.69.42-2.78.27-2.39.43-3.82a146.13,146.13,0,0,0,.53-24.44c-.12-2.58-.41-5.27-.67-8.07s-.73-5.71-1.27-8.7a139.48,139.48,0,0,0-4.6-18.81,134.77,134.77,0,0,0-8.16-19.78c-3.29-6.67-7-13.44-10.15-20.7s-5.55-14.69-6.28-22.14a62.8,62.8,0,0,1,1.46-21.39,61.57,61.57,0,0,1,3.18-9.5,71.1,71.1,0,0,1,4.34-8.39c3.13-5.23,6.41-9.85,9.12-14.25a68.85,68.85,0,0,0,6.32-12.38,39.8,39.8,0,0,0,2.41-10.19,28,28,0,0,0-.16-6.63c-.08-.76-.24-1.32-.3-1.7S139.7,248,139.7,248Z" style="fill:#e0e0e0"></path><path d="M185.27,60.59a27.23,27.23,0,0,1,9-25.08,1.66,1.66,0,0,1,1.57-.55c.52.21.7.85.77,1.41a19.89,19.89,0,0,1-3.07,12.47,75.44,75.44,0,0,1-8.67,12" style="fill:#e0e0e0"></path><path d="M100,186.21a7.27,7.27,0,0,1,.31-1.73,10.5,10.5,0,0,1,2.53-4.34,10.37,10.37,0,0,1,3-2.14,10.1,10.1,0,0,1,4.26-.93,10.43,10.43,0,0,1,9,5c2.17,3.38,2.88,7.77,3.51,12.29A129.78,129.78,0,0,1,123.69,209a125.92,125.92,0,0,1-.73,16.24q-.45,4.22-1.23,8.52c-.24,1.43-.54,2.87-.84,4.32a9.37,9.37,0,0,1-.69,2.16,4.18,4.18,0,0,1-1.45,1.84,2.29,2.29,0,0,1-2.39.06,4.29,4.29,0,0,1-1.52-1.77c-.36-.68-.61-1.37-.9-2s-.55-1.36-.8-2a68.79,68.79,0,0,1-2.53-8.23,72.3,72.3,0,0,1-2-16.14,64.81,64.81,0,0,1,.33-7.58c.11-1.22.27-2.42.44-3.6a9,9,0,0,1,1-3.43,3.13,3.13,0,0,1,1.3-1.25,2.62,2.62,0,0,1,1.78-.18,4.2,4.2,0,0,1,2.4,2.33,9.78,9.78,0,0,1,.9,3.05c.17,1,.33,2,.49,3a99.86,99.86,0,0,1,1.48,10.46,28.42,28.42,0,0,1-.46,8,23,23,0,0,1-1.55,4.8l-.58,1.18a2,2,0,0,1-.22.39,2.94,2.94,0,0,1,.17-.41c.13-.29.3-.69.53-1.2a24.75,24.75,0,0,0,1.45-4.8,28.71,28.71,0,0,0,.37-7.9,104.22,104.22,0,0,0-1.55-10.43q-.24-1.45-.51-3a9.34,9.34,0,0,0-.88-2.93,3.77,3.77,0,0,0-2.14-2.1,2.19,2.19,0,0,0-1.49.15,2.69,2.69,0,0,0-1.12,1.1,8.53,8.53,0,0,0-1,3.26c-.16,1.17-.32,2.37-.43,3.59a68.5,68.5,0,0,0-.3,7.52,71.35,71.35,0,0,0,2,16,66.1,66.1,0,0,0,2.52,8.17c.24.68.51,1.36.79,2s.54,1.37.88,2a3.75,3.75,0,0,0,1.32,1.56,1.74,1.74,0,0,0,1.85-.05,3.73,3.73,0,0,0,1.26-1.62,9.07,9.07,0,0,0,.65-2c.3-1.44.6-2.87.84-4.3q.78-4.29,1.23-8.48a127,127,0,0,0,.76-16.18,129.43,129.43,0,0,0-1.1-14.62c-.61-4.52-1.29-8.86-3.39-12.15a10.09,10.09,0,0,0-8.66-4.89,9.62,9.62,0,0,0-4.15.86,10.1,10.1,0,0,0-2.94,2.05,10.69,10.69,0,0,0-2.58,4.23,8.91,8.91,0,0,0-.32,1.27A2.39,2.39,0,0,1,100,186.21Z" style="fill:#e0e0e0"></path><path d="M25.05,133a23.87,23.87,0,0,0,7-2.93,19.25,19.25,0,0,0,5.64-5.67,19,19,0,0,0,3.07-9c0-.1,0-.21,0-.3l.4.34A15.13,15.13,0,0,0,32.73,120,31.87,31.87,0,0,0,28,126.38c-1.13,1.94-1.93,3.58-2.46,4.71a12,12,0,0,1-.88,1.74A9.93,9.93,0,0,1,25.3,131a43.3,43.3,0,0,1,2.28-4.82,30.46,30.46,0,0,1,4.68-6.53,15.54,15.54,0,0,1,8.84-4.9l.44-.06,0,.4,0,.32a19.17,19.17,0,0,1-3.21,9.26,19.37,19.37,0,0,1-5.91,5.74,17.65,17.65,0,0,1-5.23,2.22,12.31,12.31,0,0,1-1.53.28A2,2,0,0,1,25.05,133Z" style="fill:#e0e0e0"></path><path d="M25.05,133c-.15-.12,2-2.8,4.81-6s5.21-5.69,5.36-5.58-2,2.8-4.82,6S25.19,133.06,25.05,133Z" style="fill:#e0e0e0"></path><path d="M207.89,50.71a23.59,23.59,0,0,0,7.47,1.43,19.22,19.22,0,0,0,7.84-1.62,19,19,0,0,0,7.51-5.81l.2-.24.14.5a15.15,15.15,0,0,0-9.63-.78A31.39,31.39,0,0,0,214,46.87c-2,1-3.58,1.92-4.65,2.57a11.17,11.17,0,0,1-1.7,1,10,10,0,0,1,1.54-1.19,44,44,0,0,1,4.57-2.77,30.55,30.55,0,0,1,7.5-2.86,15.56,15.56,0,0,1,10.08.79l.4.19-.25.31-.2.25a19.48,19.48,0,0,1-15.88,7.48,17.44,17.44,0,0,1-5.59-1,11.46,11.46,0,0,1-1.44-.61C208,50.82,207.88,50.73,207.89,50.71Z" style="fill:#e0e0e0"></path><path d="M207.89,50.71c-.06-.18,3.22-1.23,7.32-2.34s7.49-1.88,7.55-1.7-3.22,1.22-7.33,2.34S208,50.89,207.89,50.71Z" style="fill:#e0e0e0"></path><path d="M105.3,282.78a2.18,2.18,0,0,1,.41.09l1.17.29a19.22,19.22,0,0,0,4.6.45,13.67,13.67,0,0,0,6.86-2.24,31.59,31.59,0,0,0,7-6.66,30,30,0,0,0,5.42-10.34,67.9,67.9,0,0,0,2.5-13.28,205.53,205.53,0,0,0,.87-31c-.23-5.51-.64-10.88-1.13-16.06a137.38,137.38,0,0,0-2-14.83,43.08,43.08,0,0,0-4.55-12.66,27.15,27.15,0,0,0-7.72-8.72,19.35,19.35,0,0,0-8.91-3.5,18.05,18.05,0,0,0-7.25.58,14.68,14.68,0,0,0-4.16,2c-.87.6-1.29,1-1.31,1a10.7,10.7,0,0,1,1.25-1,14.38,14.38,0,0,1,4.16-2.09,18.31,18.31,0,0,1,7.34-.67A19.54,19.54,0,0,1,119,167.5a27.24,27.24,0,0,1,7.88,8.81,43,43,0,0,1,4.65,12.77,137,137,0,0,1,2,14.88c.5,5.19.91,10.57,1.14,16.09a203.82,203.82,0,0,1-.91,31.1,68.24,68.24,0,0,1-2.57,13.35A30.44,30.44,0,0,1,125.63,275a31.76,31.76,0,0,1-7.13,6.66,13.76,13.76,0,0,1-7,2.2,17.94,17.94,0,0,1-4.63-.55l-1.17-.34A2,2,0,0,1,105.3,282.78Z" style="fill:#e0e0e0"></path><path d="M83.29,44.16a1.5,1.5,0,0,1,.08.35c0,.26.11.61.19,1.05.16.95.38,2.3.67,4,.58,3.49,1.38,8.54,2.64,14.74.62,3.1,1.4,6.47,2.32,10.07s2.09,7.39,3.51,11.32a86.72,86.72,0,0,0,13,23.71c2.9,3.85,5.89,7.5,8.61,11.16,1.36,1.83,2.65,3.66,3.85,5.5.59.93,1.17,1.85,1.7,2.78s1.06,1.86,1.55,2.79a105.43,105.43,0,0,1,8,20.73c1.71,6.1,2.81,11.1,3.56,14.56l.84,4c.08.43.15.78.2,1a1.85,1.85,0,0,1,.05.35,1.56,1.56,0,0,1-.1-.34c-.07-.26-.15-.6-.26-1l-.93-4c-.81-3.44-2-8.43-3.71-14.5A107.36,107.36,0,0,0,121,131.87c-.49-.92-1-1.85-1.55-2.76s-1.11-1.84-1.7-2.76c-1.19-1.82-2.48-3.64-3.84-5.47-2.71-3.64-5.71-7.29-8.62-11.15a86.38,86.38,0,0,1-13-23.86c-1.41-3.94-2.54-7.77-3.48-11.37s-1.66-7-2.26-10.11c-1.21-6.21-2-11.28-2.48-14.78-.25-1.73-.44-3.08-.58-4,0-.44-.1-.79-.13-1A1.64,1.64,0,0,1,83.29,44.16Z" style="fill:#e0e0e0"></path><path d="M103.78,86.47a35.22,35.22,0,0,1-3.17-6.61A44.24,44.24,0,0,1,98,60.39l.06-.7.33.63a129,129,0,0,1,8,17.94,49.92,49.92,0,0,1,2.37,11,34.59,34.59,0,0,1-.8,11.85c-.13.46-.25.91-.37,1.33l-.18.63-.3-.59a174.48,174.48,0,0,1-15.8-45.66c-1.18-6.07-1.84-11-2.19-14.46-.2-1.71-.27-3-.36-3.95,0-.43,0-.78-.07-1a2.45,2.45,0,0,1,0-.36,1.68,1.68,0,0,1,.06.35c0,.26.07.6.13,1,.11.9.22,2.23.45,3.94.41,3.42,1.13,8.36,2.35,14.41a179.11,179.11,0,0,0,15.9,45.5l-.48,0c.12-.41.24-.86.37-1.31a34.55,34.55,0,0,0,.79-11.68A49.08,49.08,0,0,0,106,78.42a130.85,130.85,0,0,0-7.94-17.91l.39-.08a44.7,44.7,0,0,0,2.39,19.35,49.24,49.24,0,0,0,2.11,5l.64,1.26A2.43,2.43,0,0,1,103.78,86.47Z" style="fill:#e0e0e0"></path><path d="M136.25,199.87a7.36,7.36,0,0,1-.23-.73c-.15-.53-.34-1.23-.58-2.1-.5-1.83-1.19-4.49-2.12-7.75-1.88-6.49-4.56-15.55-9.67-24.54a59,59,0,0,0-8.74-11.56c-3.13-3.19-6.09-6-8.26-8.6a24.74,24.74,0,0,1-4.19-6.86c-.16-.44-.29-.84-.41-1.2s-.17-.65-.23-.9a3.74,3.74,0,0,1-.14-.75,5.71,5.71,0,0,1,.24.73c.08.23.15.53.27.87s.29.74.45,1.18a25.94,25.94,0,0,0,4.3,6.69c2.18,2.59,5.15,5.31,8.32,8.51a58.53,58.53,0,0,1,8.84,11.63c5.15,9.06,7.78,18.18,9.57,24.7.89,3.28,1.53,5.95,2,7.8l.48,2.13A4.08,4.08,0,0,1,136.25,199.87Z" style="fill:#e0e0e0"></path><path d="M142.08,103.78a2.05,2.05,0,0,1-.17.49l-.58,1.33c-.26.57-.57,1.28-.9,2.11s-.75,1.77-1.12,2.83c-.81,2.11-1.64,4.66-2.44,7.53a90.81,90.81,0,0,0-2,9.46,89.79,89.79,0,0,0-.91,9.64c-.1,3-.06,5.66.08,7.91,0,1.13.15,2.14.22,3s.15,1.66.22,2.28l.15,1.45a1.8,1.8,0,0,1,0,.51,1.77,1.77,0,0,1-.12-.49c-.07-.39-.15-.86-.25-1.44S134,149,134,148.15s-.24-1.91-.3-3a75.7,75.7,0,0,1-.19-8,78,78,0,0,1,2.94-19.22,75,75,0,0,1,2.57-7.53c.39-1.06.83-2,1.19-2.81s.7-1.52,1-2.09l.66-1.29A2.16,2.16,0,0,1,142.08,103.78Z" style="fill:#e0e0e0"></path><path d="M155,90a8.78,8.78,0,0,1-.54.73A25.76,25.76,0,0,0,153,92.91a22.39,22.39,0,0,0-3,8.89l-.34-.14a42.51,42.51,0,0,0,5.79-10.3c.4-1,.76-2.09,1.09-3.2a15.27,15.27,0,0,0,.75-3.38,2.79,2.79,0,0,0-.39-1.59,1.6,1.6,0,0,0-2.73-.2,6.85,6.85,0,0,0-1,1.5,58.61,58.61,0,0,0-7.91,26.26,59.45,59.45,0,0,0,.1,8.4c.06,1,.18,1.75.22,2.28a4.27,4.27,0,0,1,.05.79,5,5,0,0,1-.15-.78c-.07-.52-.23-1.28-.32-2.27a53,53,0,0,1-.27-8.44,57.63,57.63,0,0,1,7.83-26.5,7.17,7.17,0,0,1,1.11-1.6,2.33,2.33,0,0,1,1.85-.82,2.72,2.72,0,0,1,2.15,3,15.59,15.59,0,0,1-.78,3.52c-.34,1.11-.71,2.19-1.12,3.23a41.7,41.7,0,0,1-5.94,10.36l-.43.55.09-.7a21.71,21.71,0,0,1,3.24-9,19,19,0,0,1,1.54-2.1l.46-.51C154.91,90.08,155,90,155,90Z" style="fill:#e0e0e0"></path><path d="M82.21,122.72a5.08,5.08,0,0,1,1.13.67,17.92,17.92,0,0,1,2.72,2.34A26.85,26.85,0,0,1,92,135.92a54.16,54.16,0,0,1,2.22,11.59c.15,1.51.23,2.72.28,3.56a5.82,5.82,0,0,1,0,1.32,7.31,7.31,0,0,1-.22-1.3c-.12-.94-.27-2.12-.44-3.54a62,62,0,0,0-2.36-11.46A28.05,28.05,0,0,0,85.79,126,35.36,35.36,0,0,0,82.21,122.72Z" style="fill:#e0e0e0"></path><path d="M46.66,138.15a5.48,5.48,0,0,1,1.06-.52c.7-.3,1.72-.72,3-1.18a76.18,76.18,0,0,1,10.21-2.89,34,34,0,0,1,5.8-.84,11.5,11.5,0,0,1,4.75.74,7.67,7.67,0,0,1,2.71,1.78,2.91,2.91,0,0,1,.7,1,9,9,0,0,0-3.54-2.39,11.62,11.62,0,0,0-4.61-.61,36.24,36.24,0,0,0-5.71.87,97.27,97.27,0,0,0-10.19,2.73l-3,1A4.92,4.92,0,0,1,46.66,138.15Z" style="fill:#e0e0e0"></path><path d="M386,393.74q4.81,34.32,9.64,68.64l2.51.09C396.55,439.15,394.84,415.37,386,393.74Z" style="fill:#ebebeb"></path><path d="M412.77,390.52c-6.73,7.38-9.44,17.53-11.15,27.37-2.42,13.95-2.64,30.43-1.91,44.58l3.52.07A193.65,193.65,0,0,1,412.77,390.52Z" style="fill:#ebebeb"></path><path d="M387.77,434.35c-.77-3.4-1.66-6.86-3.6-9.76-2.62-3.91-6.9-6.39-11.19-8.31s-8.83-3.47-12.71-6.14c4.33,7.11,14.17,9,19.18,15.65,2.49,3.3,3.53,7.45,4.5,11.48,2.13,8.77,3.44,16.36,5.57,25.14h2.85A223.57,223.57,0,0,0,387.77,434.35Z" style="fill:#ebebeb"></path><path d="M405.8,462.47s2.41-27.27,4.2-32.27,18.71-18.84,18.55-18.19-12.69,15.78-14.48,18.88-4.88,31.58-4.88,31.58Z" style="fill:#ebebeb"></path></g><g id="freepik--Plants--inject-25"><path d="M436.05,428.3c.14,0,2,7.19,4.16,16.13s3.81,16.21,3.67,16.25-2-7.19-4.17-16.13S435.91,428.34,436.05,428.3Z" style="fill:#263238"></path><path d="M450.61,422.6a9.57,9.57,0,0,1-.25,1.49c-.2,1-.47,2.33-.76,4a92.36,92.36,0,0,0-.66,27c.21,1.72.4,3.11.55,4.07a7.79,7.79,0,0,1,.18,1.5,7.54,7.54,0,0,1-.38-1.47c-.21-.94-.46-2.33-.72-4.05a80.7,80.7,0,0,1,.67-27.09c.34-1.71.66-3.08.92-4A7,7,0,0,1,450.61,422.6Z" style="fill:#263238"></path><path d="M472,414.27a1.77,1.77,0,0,1-.28.4l-.86,1.08c-.39.47-.85,1-1.35,1.73s-1.12,1.45-1.7,2.35-1.28,1.86-1.92,2.95-1.31,2.25-2,3.5a62.62,62.62,0,0,0-6.12,17.36c-.24,1.39-.5,2.72-.63,4s-.28,2.42-.36,3.49-.11,2.05-.14,2.9,0,1.59,0,2.19,0,1,0,1.39a1.79,1.79,0,0,1,0,.49,1.61,1.61,0,0,1-.06-.49c0-.37-.06-.83-.1-1.38s-.07-1.35-.05-2.2,0-1.84.07-2.92.12-2.26.29-3.53.36-2.6.59-4a59.66,59.66,0,0,1,6.17-17.5c.7-1.25,1.35-2.44,2-3.5s1.35-2.06,2-2.93,1.25-1.64,1.78-2.32,1-1.23,1.42-1.68l.94-1Q472,414.26,472,414.27Z" style="fill:#263238"></path><path d="M255.9,433.56a5.43,5.43,0,0,1,.76.95c.46.62,1.07,1.57,1.78,2.77a43.45,43.45,0,0,1,4.18,10,42.77,42.77,0,0,1,1.52,10.75,32.23,32.23,0,0,1-.11,3.3,4.6,4.6,0,0,1-.17,1.19c-.09,0,0-1.72-.09-4.48a48.57,48.57,0,0,0-1.65-10.62,48,48,0,0,0-4-10C256.8,435,255.83,433.61,255.9,433.56Z" style="fill:#263238"></path><path d="M273.39,433.19c.08,0-.27,1.4-.65,3.66a51.17,51.17,0,0,0,.08,17.8c.4,2.26.76,3.63.68,3.66a3.64,3.64,0,0,1-.36-.94c-.2-.62-.44-1.52-.69-2.65a43.69,43.69,0,0,1-1-9,43.1,43.1,0,0,1,.9-9c.24-1.12.47-2,.66-2.65A3.46,3.46,0,0,1,273.39,433.19Z" style="fill:#263238"></path><path d="M285.79,441.12a18.49,18.49,0,0,1-1.13,2.53,65.56,65.56,0,0,0-2.52,6.17,63.46,63.46,0,0,0-1.86,6.39,19.38,19.38,0,0,1-.69,2.69,11.53,11.53,0,0,1,.33-2.77,42.84,42.84,0,0,1,1.73-6.48,43.71,43.71,0,0,1,2.68-6.16A11.7,11.7,0,0,1,285.79,441.12Z" style="fill:#263238"></path><path d="M248.21,441.13s.25.15.63.49a15.34,15.34,0,0,1,1.51,1.59,22.56,22.56,0,0,1,5.18,13.24,16.38,16.38,0,0,1,0,2.19,2.3,2.3,0,0,1-.13.79c-.09,0,0-1.14-.21-2.95a25.3,25.3,0,0,0-5.1-13C249,442,248.15,441.19,248.21,441.13Z" style="fill:#263238"></path><path d="M45.83,466.85a8.11,8.11,0,0,1-.23-1.53c-.09-1-.3-2.4-.58-4.14a55.86,55.86,0,0,0-1.38-6A44.26,44.26,0,0,0,41,448.08a40.62,40.62,0,0,0-3.83-6.51,37,37,0,0,0-4-4.67c-2.52-2.46-4.37-3.66-4.3-3.76a9.13,9.13,0,0,1,1.3.83,15.2,15.2,0,0,1,1.44,1.09,22.85,22.85,0,0,1,1.81,1.57,34.78,34.78,0,0,1,4.17,4.65,39.6,39.6,0,0,1,3.91,6.57A41.5,41.5,0,0,1,44.1,455a48,48,0,0,1,1.28,6.11c.24,1.76.39,3.18.42,4.18A10,10,0,0,1,45.83,466.85Z" style="fill:#263238"></path><path d="M51.61,465.88a8.76,8.76,0,0,1-.33-1.45c-.19-1-.44-2.38-.74-4-.62-3.37-1.52-8-2.65-13.13s-2.26-9.71-3.11-13l-1-3.93a6.91,6.91,0,0,1-.31-1.46,8.79,8.79,0,0,1,.5,1.4c.3.92.7,2.25,1.17,3.9.95,3.3,2.14,7.89,3.27,13s2,9.79,2.51,13.18c.26,1.7.46,3.07.57,4A7.52,7.52,0,0,1,51.61,465.88Z" style="fill:#263238"></path><path d="M90.64,443.34c.14,0,0,5.39-.38,12s-.75,12-.89,12,0-5.39.37-12S90.49,443.33,90.64,443.34Z" style="fill:#263238"></path><path d="M103.16,466.4a4.2,4.2,0,0,1-.26-1.08c-.16-.81-.35-1.79-.57-2.95-.48-2.49-1.22-5.92-2.24-9.65s-2.14-7.06-3-9.43-1.54-3.8-1.46-3.84a4.41,4.41,0,0,1,.55,1c.33.64.76,1.57,1.25,2.75a76.89,76.89,0,0,1,3.2,9.42,92.63,92.63,0,0,1,2.11,9.72c.19,1.26.33,2.28.4,3A5.16,5.16,0,0,1,103.16,466.4Z" style="fill:#263238"></path><path d="M105.87,429.33c.15,0,.45,8.3.69,18.53s.32,18.54.17,18.54-.45-8.29-.69-18.53S105.73,429.34,105.87,429.33Z" style="fill:#263238"></path><path d="M116.46,437a5.53,5.53,0,0,1-.33,1.12c-.25.7-.59,1.73-1,3a82.62,82.62,0,0,0-2.45,10.12,87.35,87.35,0,0,0-1.21,10.35c-.09,1.33-.12,2.41-.15,3.16a4.55,4.55,0,0,1-.09,1.16,5.73,5.73,0,0,1-.11-1.16c0-.75-.06-1.84,0-3.18a69.9,69.9,0,0,1,1.07-10.42A67.12,67.12,0,0,1,114.8,441c.44-1.27.83-2.28,1.14-3A5.16,5.16,0,0,1,116.46,437Z" style="fill:#263238"></path><path d="M72.36,427.48a7.47,7.47,0,0,1,3.87,4.39,13.29,13.29,0,0,1,.52,5.95c-.44,3.85-2.63,7.75-5,10.83-3.25-2.83-4-7.78-4.22-10.31-.35-4,1.45-11.45,4.82-10.86" style="fill:#002447"></path><path d="M75.53,455A6.4,6.4,0,0,1,77.59,449,8.49,8.49,0,0,1,83.84,447a3.57,3.57,0,0,1,2.74,1.23,2.74,2.74,0,0,1,0,2.77,5.47,5.47,0,0,1-2,2c-2.82,1.77-5.87,3-9,2" style="fill:#002447"></path><path d="M71.37,466.85a4.14,4.14,0,0,1,.11-.8c.1-.55.24-1.27.39-2.14a22.21,22.21,0,0,1,2.22-6.84A13.64,13.64,0,0,1,79,451.85a9.23,9.23,0,0,1,2-.89,4.64,4.64,0,0,1,.58-.14c.13,0,.2,0,.2,0A14.76,14.76,0,0,0,79.1,452a14.11,14.11,0,0,0-4.77,5.18A24.33,24.33,0,0,0,72.07,464c-.2.9-.36,1.63-.48,2.13A5.23,5.23,0,0,1,71.37,466.85Z" style="fill:#263238"></path><path d="M71.49,433.28a1.73,1.73,0,0,1,0,.34c0,.26,0,.59.06,1,0,.86.09,2.11.14,3.66.1,3.09.18,7.36.16,12.08s-.13,9-.26,12.08c-.06,1.55-.13,2.8-.18,3.66,0,.41,0,.74-.07,1a2,2,0,0,1,0,.35,1.88,1.88,0,0,1,0-.35c0-.26,0-.59,0-1,0-.9,0-2.14.09-3.66.08-3.09.16-7.36.18-12.07s0-9-.08-12.08c0-1.52,0-2.76,0-3.66,0-.41,0-.74,0-1A1.3,1.3,0,0,1,71.49,433.28Z" style="fill:#263238"></path><path d="M69.91,457.37a14.9,14.9,0,0,0-8.15-10.93c-1.08-.52-2.5-.86-3.39-.06s-.69,2.27-.26,3.39a12.75,12.75,0,0,0,11.72,7.91" style="fill:#002447"></path><path d="M62.29,450.1a3.67,3.67,0,0,1,.69.3,6.73,6.73,0,0,1,.78.41c.29.18.64.36,1,.62a12.63,12.63,0,0,1,1.14.86,14.62,14.62,0,0,1,1.2,1.09,16.85,16.85,0,0,1,2.3,2.95,16.57,16.57,0,0,1,1.51,3.42,15.16,15.16,0,0,1,.38,1.59,13.46,13.46,0,0,1,.2,1.4c0,.43,0,.83,0,1.17a7.6,7.6,0,0,1,0,.88,3.46,3.46,0,0,1-.08.75c-.06,0,0-1.07-.14-2.78a13.67,13.67,0,0,0-.23-1.38,14.78,14.78,0,0,0-.4-1.55,16.88,16.88,0,0,0-1.5-3.35,17.7,17.7,0,0,0-2.24-2.91,13,13,0,0,0-1.17-1.1c-.38-.34-.76-.62-1.1-.87C63.24,450.6,62.26,450.15,62.29,450.1Z" style="fill:#263238"></path></g><g id="freepik--Clock--inject-25"><circle cx="308.27" cy="171.77" r="39.33" transform="translate(89.88 448.98) rotate(-80.9)" style="fill:#002447"></circle><circle cx="308.46" cy="171.59" r="35.8" transform="translate(-43.68 147.34) rotate(-25.15)" style="fill:#fafafa"></circle><path d="M272.73,169.24s0,.2,0,.58v1.71c0,.37,0,.79,0,1.25s.08,1,.12,1.51.11,1.13.16,1.76.23,1.28.34,2a34.24,34.24,0,0,0,3.33,9.75,35.56,35.56,0,0,0,8.39,10.69l1.46,1.25c.52.39,1.07.75,1.61,1.13a19.44,19.44,0,0,0,1.67,1.12l1.78,1,.91.5,1,.43,1.95.86c.67.27,1.37.46,2.06.7a18.53,18.53,0,0,0,2.12.63,34.07,34.07,0,0,0,4.46.81c.77.08,1.53.2,2.31.24l2.36,0c.4,0,.8,0,1.2,0l1.19-.11c.8-.08,1.61-.11,2.42-.23a36.07,36.07,0,0,0,4.83-1.08l1.21-.35.6-.18.59-.24,2.37-1c.78-.36,1.53-.78,2.3-1.17.38-.21.78-.39,1.14-.63l1.1-.71a41.13,41.13,0,0,0,4.26-3.16l1.93-1.87.49-.47.44-.52.89-1,.89-1,.79-1.12.79-1.13.4-.57c.12-.2.23-.4.34-.6l1.37-2.43,1.14-2.57A37.94,37.94,0,0,0,344,173.93a38.33,38.33,0,0,0-1.09-11.34c-.27-.9-.53-1.8-.8-2.69s-.69-1.73-1-2.59l-.26-.64-.32-.61-.64-1.23-.64-1.21-.74-1.15-.74-1.14-.38-.57-.42-.53-1.67-2.11a41.37,41.37,0,0,0-3.81-3.69l-1-.85c-.32-.29-.7-.51-1.05-.77-.71-.49-1.4-1-2.12-1.47L325,140.09l-.55-.32-.58-.26-1.15-.51a38.63,38.63,0,0,0-4.64-1.7c-.79-.22-1.59-.36-2.37-.54l-1.17-.26c-.4-.08-.79-.11-1.19-.16l-2.34-.27c-.78-.07-1.56,0-2.33-.07a33.94,33.94,0,0,0-4.53.23,17.67,17.67,0,0,0-2.18.35c-.72.14-1.44.24-2.13.42l-2.05.6-1,.29-1,.39-1.9.76c-.64.24-1.21.6-1.81.89s-1.17.6-1.74.92l-1.61,1a35.68,35.68,0,0,0-9.71,9.51,34.19,34.19,0,0,0-4.58,9.22c-.2.68-.47,1.3-.59,1.92s-.27,1.18-.39,1.72-.24,1-.32,1.48-.11.87-.15,1.24c-.1.73-.17,1.3-.22,1.69s-.09.57-.09.57,0-.19,0-.58.1-.95.18-1.69c0-.38.08-.79.13-1.25s.2-.95.31-1.49.24-1.11.37-1.73a19.64,19.64,0,0,1,.58-1.93,34,34,0,0,1,4.54-9.3,35.66,35.66,0,0,1,9.74-9.61l1.62-1.06c.57-.33,1.16-.62,1.75-.93s1.17-.66,1.81-.9l1.92-.78,1-.39,1-.3,2.07-.61c.7-.18,1.43-.29,2.15-.43a18,18,0,0,1,2.2-.36,33,33,0,0,1,4.58-.24c.77,0,1.56,0,2.34.06l2.37.27c.4.06.8.08,1.2.16l1.18.26c.79.18,1.6.33,2.39.55a37.87,37.87,0,0,1,4.7,1.71l1.16.51.59.26.55.32,2.25,1.27c.74.46,1.43,1,2.15,1.48.36.26.74.48,1.07.77l1,.86a41,41,0,0,1,3.85,3.73l1.69,2.13.43.53.38.58.75,1.15.75,1.16.65,1.23.64,1.24.33.62.26.64,1.06,2.62c.26.9.53,1.81.8,2.72A38.81,38.81,0,0,1,344.38,174a38.35,38.35,0,0,1-2.6,11.21c-.39.87-.77,1.74-1.15,2.6l-1.39,2.45-.35.61-.4.57-.8,1.15-.8,1.13-.9,1.05-.9,1.05-.45.51-.49.48-2,1.89a41.91,41.91,0,0,1-4.3,3.19l-1.11.72c-.37.24-.78.42-1.16.63-.78.39-1.54.82-2.33,1.18l-2.39,1-.6.24-.61.18-1.22.36a40.23,40.23,0,0,1-4.88,1.08c-.81.11-1.63.15-2.44.23l-1.21.1c-.4,0-.8,0-1.2,0l-2.39,0c-.78,0-1.56-.17-2.33-.25a33.09,33.09,0,0,1-4.5-.83,18.89,18.89,0,0,1-2.14-.64c-.7-.24-1.41-.44-2.08-.71l-2-.88-1-.43-.92-.51-1.8-1c-.6-.33-1.12-.77-1.68-1.14s-1.1-.75-1.62-1.15l-1.47-1.26a35.75,35.75,0,0,1-8.4-10.8,33.9,33.9,0,0,1-3.28-9.82,19.49,19.49,0,0,1-.32-2c-.05-.63-.1-1.22-.14-1.76s-.1-1.05-.11-1.52,0-.88,0-1.25c0-.74,0-1.31,0-1.71S272.73,169.24,272.73,169.24Z" style="fill:#263238"></path><path d="M323.54,172.35a6.17,6.17,0,0,1-1.17.09l-3.19.07c-2.72,0-6.49.07-10.76.07h-.21V170c0-5.18,0-9.88.06-13.28,0-1.63.05-3,.07-4a9.22,9.22,0,0,1,.08-1.48,9.22,9.22,0,0,1,.08,1.48c0,1,0,2.39.07,4,0,3.4.06,8.1.06,13.28v2.32l-.21-.23c4.27,0,8,0,10.76.08l3.19.07A6.92,6.92,0,0,1,323.54,172.35Z" style="fill:#263238"></path><path d="M308.55,141.33a10,10,0,0,1,.23,3,10,10,0,0,1-.23,3,10,10,0,0,1-.23-3A10,10,0,0,1,308.55,141.33Z" style="fill:#263238"></path><path d="M324.86,146.16a18.93,18.93,0,0,1-4.19,4.19,9.64,9.64,0,0,1,1.93-2.26A10,10,0,0,1,324.86,146.16Z" style="fill:#263238"></path><path d="M334.4,156.58a12.42,12.42,0,0,1-2.47,1.65,12.24,12.24,0,0,1-2.6,1.43,8.15,8.15,0,0,1,2.36-1.83A7.91,7.91,0,0,1,334.4,156.58Z" style="fill:#263238"></path><path d="M340,172a36.66,36.66,0,0,1-8.2,0,36.66,36.66,0,0,1,8.2,0Z" style="fill:#263238"></path><path d="M283.12,171.5a32.67,32.67,0,0,1-7.74,0,31.32,31.32,0,0,1,7.74,0Z" style="fill:#263238"></path><path d="M287.14,183a16.87,16.87,0,0,1-2.92,2.65A17.09,17.09,0,0,1,281,188a16.54,16.54,0,0,1,2.93-2.66A17.06,17.06,0,0,1,287.14,183Z" style="fill:#263238"></path><path d="M297.07,191.91a27.4,27.4,0,0,1-2,3.45,25.85,25.85,0,0,1-2.11,3.38,20.42,20.42,0,0,1,4.11-6.83Z" style="fill:#263238"></path><path d="M308.55,203.39a18.22,18.22,0,0,1-.23-4.1,18.29,18.29,0,0,1,.23-4.1,18.29,18.29,0,0,1,.23,4.1A18.22,18.22,0,0,1,308.55,203.39Z" style="fill:#263238"></path><path d="M326.22,197.93a12.14,12.14,0,0,1-3.38-2.32,11.88,11.88,0,0,1-2.75-3,36.45,36.45,0,0,1,3.06,2.68A37.87,37.87,0,0,1,326.22,197.93Z" style="fill:#263238"></path><path d="M334.52,189a27.17,27.17,0,0,1-5.1-5.1,28.85,28.85,0,0,1,5.1,5.1Z" style="fill:#263238"></path><path d="M286.77,160.47A21.52,21.52,0,0,1,282.3,156a11,11,0,0,1,2.4,2.07A11.27,11.27,0,0,1,286.77,160.47Z" style="fill:#263238"></path><path d="M297,149.68a10.5,10.5,0,0,1-2.36-2,10.69,10.69,0,0,1-2-2.35,10.39,10.39,0,0,1,2.36,2A10.53,10.53,0,0,1,297,149.68Z" style="fill:#263238"></path><path d="M276.88,171.73a35.58,35.58,0,0,1,33.48-35.52c-.7-.05-1.41-.07-2.12-.07a35.59,35.59,0,0,0,0,71.18c.71,0,1.42,0,2.12-.07A35.6,35.6,0,0,1,276.88,171.73Z" style="fill:#e0e0e0"></path><path d="M296.22,159.91a7,7,0,0,1,.19-3.64l.33.31-.07,0a13,13,0,0,1-3.59.9,13.45,13.45,0,0,1,3.42-1.39l.08,0,.45-.14-.12.45C296.43,158.3,296.37,159.91,296.22,159.91Z" style="fill:#263238"></path><path d="M268,192.13s-.13-.14-.33-.42-.51-.71-.85-1.28a36.56,36.56,0,0,1-2.58-5,39.14,39.14,0,0,1,2.55-35.76,36.69,36.69,0,0,1,3.26-4.58c.42-.51.79-.88,1-1.14s.37-.38.39-.37a19.62,19.62,0,0,1-1.25,1.64,40.24,40.24,0,0,0-5.63,40.07,42.62,42.62,0,0,0,2.42,5C267.66,191.48,268,192.1,268,192.13Z" style="fill:#e0e0e0"></path><path d="M256.85,184a5.39,5.39,0,0,1-.46-1.16,27.3,27.3,0,0,1-.88-3.29,35.88,35.88,0,0,1-.71-5,40.54,40.54,0,0,1,.06-6.21,42.11,42.11,0,0,1,1.06-6.11,38.86,38.86,0,0,1,1.61-4.8,30,30,0,0,1,1.47-3.08,6,6,0,0,1,.66-1.06c.09.05-.77,1.61-1.78,4.28a40.4,40.4,0,0,0-1.49,4.78,42.69,42.69,0,0,0-1,6,43.78,43.78,0,0,0-.1,6.12,40.89,40.89,0,0,0,.59,5C256.38,182.27,256.94,184,256.85,184Z" style="fill:#e0e0e0"></path><path d="M348.55,148.75a9.6,9.6,0,0,1,.7,1.49c.22.49.46,1.09.7,1.8s.55,1.52.79,2.43.56,1.91.78,3,.45,2.26.66,3.5a54.68,54.68,0,0,1,.51,8.14,53.84,53.84,0,0,1-.85,8.12,46.63,46.63,0,0,1-1.7,6.44c-.28.9-.62,1.69-.89,2.39a19,19,0,0,1-.78,1.77,9.27,9.27,0,0,1-.75,1.46,9.91,9.91,0,0,1,.57-1.54c.2-.49.45-1.08.69-1.79s.56-1.5.81-2.41.58-1.88.83-3,.5-2.23.75-3.45A51.41,51.41,0,0,0,351.7,161c-.19-1.22-.35-2.39-.6-3.47s-.47-2.09-.71-3-.5-1.72-.72-2.43-.42-1.33-.61-1.82A10.3,10.3,0,0,1,348.55,148.75Z" style="fill:#e0e0e0"></path><path d="M356.29,174c-.08,0,.09-1.21.24-3.15a52.63,52.63,0,0,0,0-7.6,51.77,51.77,0,0,0-1.13-7.5c-.42-1.9-.76-3.07-.69-3.09s.16.27.35.78.44,1.27.7,2.22a39.51,39.51,0,0,1,1.29,7.56,40.09,40.09,0,0,1-.18,7.66c-.12,1-.25,1.76-.37,2.3A2.41,2.41,0,0,1,356.29,174Z" style="fill:#e0e0e0"></path><path d="M270.77,148.89A22.66,22.66,0,0,1,271,144l.32.27-.1,0a24,24,0,0,1-4.91,1,23.63,23.63,0,0,1,4.78-1.53l.1,0,.36-.09,0,.37A23.8,23.8,0,0,1,270.77,148.89Z" style="fill:#e0e0e0"></path><path d="M351,187.18a16,16,0,0,1-3.26,2.45l-.37.25,0-.44,0-.18a16.91,16.91,0,0,1-.06-4.25,17.86,17.86,0,0,1,.58,4.21l0,.18-.41-.2A17,17,0,0,1,351,187.18Z" style="fill:#e0e0e0"></path><path d="M296.75,156.33s-.05.07-.16.19l-.51.49a21.67,21.67,0,0,0-1.79,2.05,19.32,19.32,0,0,0-3.85,9.09,16.85,16.85,0,0,0-.18,3.29c.05.57,0,1.16.12,1.75s.18,1.19.3,1.8a19,19,0,0,0,3.21,7.13,19.07,19.07,0,0,0,30.93,0A18.84,18.84,0,0,0,328,175c.13-.6.2-1.2.3-1.79s.08-1.18.12-1.75a17.64,17.64,0,0,0-.17-3.29,19.28,19.28,0,0,0-3.85-9.09,21.64,21.64,0,0,0-1.8-2.05l-.51-.5c-.11-.11-.17-.17-.16-.18a14,14,0,0,1,2.62,2.6,19,19,0,0,1,4.06,9.16,17.49,17.49,0,0,1,.21,3.36c0,.58,0,1.18-.11,1.79s-.16,1.22-.29,1.83a19.15,19.15,0,0,1-3.24,7.33,19.73,19.73,0,0,1-6.64,5.84,19.52,19.52,0,0,1-18.42,0,19.77,19.77,0,0,1-6.65-5.84,19.33,19.33,0,0,1-3.24-7.32c-.13-.62-.19-1.24-.29-1.84s-.07-1.21-.11-1.79a17.33,17.33,0,0,1,.21-3.35,19.05,19.05,0,0,1,4.06-9.17A14,14,0,0,1,296.75,156.33Z" style="fill:#263238"></path></g><g id="freepik--Character--inject-25"><path d="M152.44,253a16.43,16.43,0,0,0-10.63,11.75c-.91,4.09.27,9.1,4.05,10.9,2.24,1.06,4.87.78,7.26.14A19.11,19.11,0,0,0,163,270a12.11,12.11,0,0,0,2.65-10.83,10,10,0,0,0-14.43-6.05" style="fill:#263238"></path><path d="M157.06,240.39c-1.26-1.23-3-2.57-4.61-1.91a4,4,0,0,0-1.78,1.71,15.58,15.58,0,0,0,13,24l2.51-14.86Z" style="fill:#263238"></path><path d="M222.51,225.8c-.66-4.73-2.22-9.29-3.34-13.93-1.33-5.52-2-11.2-3.7-16.64s-4.34-10.77-8.82-14.27-13.68-7.15-25.16-1l-7.41,9.83a221.11,221.11,0,0,0,29,58,5.56,5.56,0,0,0,2.6,2.39c1.58.5,3.21-.45,4.59-1.36,3.84-2.51,7.82-5.17,10.14-9.13S223.16,230.53,222.51,225.8Z" style="fill:#263238"></path><path d="M168.72,193.24l19.87-8,5.21.58c11.7,0,19.84,12.85,20,22.33.13,10.53-.12,23.4-1.75,31.17-3.29,15.62-15.47,17-15.47,17s.15,4.27.27,9.51a16.53,16.53,0,0,1-16.87,16.93h0a16.54,16.54,0,0,1-16.21-16.47l-.25-67.69A5.54,5.54,0,0,1,168.72,193.24Z" style="fill:#db8a76"></path><path d="M207.66,219.65a2,2,0,0,1-2,1.94,1.93,1.93,0,0,1-2-1.93,2,2,0,0,1,2-1.94A2,2,0,0,1,207.66,219.65Z" style="fill:#263238"></path><path d="M209.61,213.52c-.27.25-1.74-1-3.91-1.06s-3.83.9-4,.62c-.11-.12.17-.58.89-1.05a5.57,5.57,0,0,1,3.25-.83,5.31,5.31,0,0,1,3.1,1.17C209.53,212.92,209.74,213.41,209.61,213.52Z" style="fill:#263238"></path><path d="M196.33,230.53a15.33,15.33,0,0,1,3.56-.46c.56,0,1.09-.11,1.21-.48a2.91,2.91,0,0,0-.29-1.67c-.46-1.37-.93-2.8-1.43-4.31-2-6.13-3.38-11.16-3.13-11.24s2.05,4.83,4,11l1.35,4.33a3.17,3.17,0,0,1,.18,2.19,1.39,1.39,0,0,1-.95.77,3.65,3.65,0,0,1-1,.08A13.53,13.53,0,0,1,196.33,230.53Z" style="fill:#263238"></path><path d="M196.54,256.33a40,40,0,0,1-20.81-6.68s5.07,11.2,20.91,10.52Z" style="fill:#a45b4a"></path><path d="M209,205.29c-.41.48-1.88-.11-3.68-.23s-3.34.17-3.66-.37c-.15-.25.12-.74.81-1.17a5.12,5.12,0,0,1,3-.66A5.06,5.06,0,0,1,208.4,204C209,204.54,209.19,205.06,209,205.29Z" style="fill:#263238"></path><path d="M184.17,219.52a2,2,0,0,0,1.92,2.07,1.93,1.93,0,0,0,2.11-1.8,2,2,0,0,0-1.92-2.07A1.94,1.94,0,0,0,184.17,219.52Z" style="fill:#263238"></path><path d="M180.6,213.26c.25.27,1.79-.84,4-.81s3.76,1.14,4,.88-.14-.6-.82-1.11a5.57,5.57,0,0,0-3.2-1,5.25,5.25,0,0,0-3.16,1C180.71,212.67,180.48,213.15,180.6,213.26Z" style="fill:#263238"></path><path d="M181.22,203.93c.38.5,1.88,0,3.68,0s3.33.37,3.69-.14c.16-.25-.08-.75-.74-1.22a5.33,5.33,0,0,0-5.94.11C181.27,203.19,181.05,203.69,181.22,203.93Z" style="fill:#263238"></path><path d="M187.38,184.41l-1.08-.86c-5-2-12.73-1.35-17.05,1.94a22.3,22.3,0,0,0-8,13.75,33.09,33.09,0,0,0,0,9.29l-.1,0c-3-.94-6.74-12.42-9.15-3.5-2,7.33-4.28,22.17-2.28,29.49s7.12,14.19,14,17.43c.4-11.51,1.07-22.19,1.47-33.7a30.08,30.08,0,0,0,0-3.29C172.6,205.11,180.21,194.19,187.38,184.41Z" style="fill:#263238"></path><path d="M190.15,178.78l-.62,1a13.68,13.68,0,0,0-10.67-3c-4.19.5-8.05,2.5-11.52,4.89-6.48,4.45-12,10.53-14.77,17.89s-7.08,44.52,9.93,44.5a44.27,44.27,0,0,0,9.48-16c1.39-4,2.72-13.82,5-17.42,5.42-8.69,8.66-16.68,12.64-25.72l1.45.24s21.41,16.1,24.17,31.48C215.21,216.64,217.76,174.89,190.15,178.78Z" style="fill:#263238"></path><path d="M192.31,233.84a7.07,7.07,0,0,0-1.88-.13c-.64.2-.31,1-.57,1.6a12.19,12.19,0,0,0-.75,2.52,2.3,2.3,0,0,0,.06,1.35,2.08,2.08,0,0,0,2,.93c1.39,0,2.46.14,3.44-.84s1.41-3,1.92-4.49l0-.26Z" style="fill:#a45b4a"></path><path d="M194.38,239.58s-.11.29-.54.51a4.73,4.73,0,0,1-1.93.44,3.68,3.68,0,0,1-2.87-1.06,2.46,2.46,0,0,1-.57-1.9,8,8,0,0,1,.45-1.83c.31-.78.63-1.54.93-2.24l.15-.35.39.07c1.86.34,3.35.73,4.48.9s1.77.31,1.77.43-.68.23-1.84.2a37.9,37.9,0,0,1-4.57-.54l.53-.28-.85,2.14c-.41,1.12-.66,2.2-.15,2.77a2.76,2.76,0,0,0,1,.71,3.47,3.47,0,0,0,1.13.24A9,9,0,0,0,194.38,239.58Z" style="fill:#263238"></path><path d="M163.34,246.5s-.23.11-.66.22a7.48,7.48,0,0,1-.81.17l-1.08.08a8.63,8.63,0,0,1-5.84-2.13,13.59,13.59,0,0,1-3.6-5.12,8.49,8.49,0,0,1-.75-2.47c.08,0,.4.91,1.09,2.32a14.82,14.82,0,0,0,3.59,4.87,8.92,8.92,0,0,0,5.51,2.17h1.06c.31,0,.57-.07.79-.08A2.24,2.24,0,0,1,163.34,246.5Z" style="fill:#455a64"></path><path d="M159.59,262.89s-.2.09-.59.15a5.88,5.88,0,0,1-1.67,0,6.94,6.94,0,0,1-2.36-.8c-.41-.21-.84-.45-1.27-.69a7.74,7.74,0,0,1-1.34-.86,10.18,10.18,0,0,1-2.88-4.66,5.45,5.45,0,0,1-.38-2.23c.08,0,.23.84.73,2.11a11.09,11.09,0,0,0,2.87,4.38,8.16,8.16,0,0,0,1.25.82l1.24.7a7.53,7.53,0,0,0,2.19.87C158.71,262.93,159.59,262.78,159.59,262.89Z" style="fill:#455a64"></path><path d="M150.12,219.75a2.17,2.17,0,0,1,.52-.25l1.54-.6a24,24,0,0,0,2.42-1c.92-.42,2-.85,3.12-1.46l1.79-.92c.62-.33,1.23-.72,1.88-1.1,1.31-.73,2.62-1.66,4-2.6a66.09,66.09,0,0,0,8.35-7.13,65.38,65.38,0,0,0,6.94-8.51c.91-1.42,1.81-2.75,2.52-4.08.36-.66.74-1.28,1.05-1.91s.6-1.23.88-1.8c.59-1.14,1-2.23,1.4-3.16s.71-1.76.94-2.43.41-1.15.56-1.56a2.94,2.94,0,0,1,.23-.53,2.26,2.26,0,0,1-.13.56c-.12.42-.28.95-.47,1.59a24.18,24.18,0,0,1-.86,2.48c-.38,1-.76,2.05-1.34,3.2-.27.59-.55,1.2-.85,1.83s-.68,1.27-1,1.94c-.69,1.35-1.58,2.7-2.49,4.14a64.75,64.75,0,0,1-7,8.61,63.9,63.9,0,0,1-8.46,7.15c-1.42.94-2.75,1.86-4.08,2.58-.66.37-1.29.76-1.91,1.08l-1.81.9c-1.14.6-2.24,1-3.18,1.4a22.59,22.59,0,0,1-2.46.91l-1.57.51A3.75,3.75,0,0,1,150.12,219.75Z" style="fill:#455a64"></path><path d="M176.85,208.56a4.6,4.6,0,0,1-.82.89c-.55.55-1.38,1.31-2.44,2.21a61.73,61.73,0,0,1-8.9,6.22,61,61,0,0,1-9.86,4.56c-1.31.47-2.38.81-3.13,1a5.48,5.48,0,0,1-1.18.27,5.53,5.53,0,0,1,1.12-.46c.73-.26,1.78-.65,3.06-1.15a74.68,74.68,0,0,0,9.73-4.67,75.7,75.7,0,0,0,8.93-6.06c1.08-.86,1.95-1.57,2.54-2.07A6.23,6.23,0,0,1,176.85,208.56Z" style="fill:#455a64"></path><path d="M220.34,216.33a17.69,17.69,0,0,1-.6-1.88,50.07,50.07,0,0,0-1.85-5,50.8,50.8,0,0,0-9.62-14.77A123.74,123.74,0,0,0,195,182.8l-4.24-3.34-1.14-.92c-.26-.21-.39-.33-.38-.35a2,2,0,0,1,.44.27l1.2.84c1,.75,2.53,1.83,4.34,3.21a108.27,108.27,0,0,1,13.4,11.77,48.59,48.59,0,0,1,9.58,15,40.53,40.53,0,0,1,1.7,5.13c.17.62.26,1.11.34,1.44A1.87,1.87,0,0,1,220.34,216.33Z" style="fill:#455a64"></path><path d="M343,408.46l16.27,28.6s31.7-5.69,35.17-.68L345.5,467.55l-27-43.6Z" style="fill:#455a64"></path><g style="opacity:0.30000000000000004"><path d="M343,408.46l16.27,28.6s31.7-5.69,35.17-.68L345.5,467.55l-27-43.6Z"></path></g><path d="M342.67,444.34a2.69,2.69,0,0,0,.17,3.42,2.25,2.25,0,0,0,3.2.11,2.86,2.86,0,0,0-.2-3.62c-1-.82-2.76-.79-3.31.27" style="fill:#e0e0e0"></path><g style="opacity:0.6000000000000001"><path d="M345.5,467.55l-2.57-4.49,47.86-28.21s2.82-.33,3.62,1.53Z" style="fill:#fff"></path></g><path d="M359.86,436.28c.16.27-1,1.15-1.61,2.75s-.6,3.12-.88,3.16-.87-1.73-.05-3.66S359.77,436,359.86,436.28Z" style="fill:#263238"></path><path d="M366.44,435.37c.21.22-.55,1.33-.67,3s.37,3,.13,3.12-1.32-1.27-1.13-3.3S366.28,435.12,366.44,435.37Z" style="fill:#263238"></path><path d="M373.54,440.34c-.18.19-1.33-.92-1.61-2.77s.49-3.13.72-3,0,1.38.28,2.89S373.76,440.16,373.54,440.34Z" style="fill:#263238"></path><path d="M355.5,430.14c.05.3-1.27.64-2.56,1.6s-2.05,2.11-2.31,2,.17-1.74,1.7-2.85S355.49,429.86,355.5,430.14Z" style="fill:#263238"></path><path d="M322.32,420.4l12.33,30.51s32.18-1.44,35,4L317,479.31l-21-46.79Z" style="fill:#455a64"></path><path d="M317.27,455.93a2.68,2.68,0,0,0-.29,3.41,2.24,2.24,0,0,0,3.16.53,2.85,2.85,0,0,0,.28-3.61c-.84-.94-2.63-1.15-3.32-.17" style="fill:#e0e0e0"></path><g style="opacity:0.6000000000000001"><path d="M317,479.31,315,474.52l51.18-21.62s2.84,0,3.38,2Z" style="fill:#fff"></path></g><path d="M335.38,450.21c.11.29-1.11,1-2,2.52s-1,3-1.29,3-.63-1.83.44-3.62S335.32,449.93,335.38,450.21Z" style="fill:#263238"></path><path d="M342,450.18c.19.25-.71,1.25-1.05,2.86s0,3-.29,3.11-1.14-1.43-.68-3.42S341.89,449.92,342,450.18Z" style="fill:#263238"></path><path d="M348.39,456.05c-.2.17-1.19-1.08-1.22-2.95s.89-3.05,1.11-2.86-.16,1.37-.12,2.9S348.64,455.91,348.39,456.05Z" style="fill:#263238"></path><path d="M331.87,443.55c0,.31-1.35.47-2.75,1.25s-2.31,1.82-2.56,1.63.4-1.7,2.07-2.6S331.89,443.27,331.87,443.55Z" style="fill:#263238"></path><path d="M202.86,269.17S199.36,262,198,262s-7.86,15.92-35.44,6.29l9,48,21.06,43.3s-4.35,39.61-3.84,39.61,20.05,3.18,20.05,3.18L229.65,384l-7.91-58.48-10-44.15Z" style="fill:#f5f5f5"></path><path d="M196.64,262v-4.31l2.77,3.6c7,5,19.16,13,25.17,17.3a13.31,13.31,0,0,1,4.58,5.75c2.49,6,7.32,18.56,7.42,25.7.13,8.41-1.65,24.16-1.65,24.62s-7.65,18.74-7.65,18.74l-15.92,1.16L214.2,328a63.32,63.32,0,0,0-3.65-28.86Z" style="fill:#455a64"></path><path d="M198.74,260.68a2.09,2.09,0,0,1,.35.45q.33.47.9,1.38c.77,1.2,1.83,3,3.09,5.19,2.52,4.43,5.82,10.64,9.63,17.43,2.28,4.2,4.28,8.23,5.92,11.74l-.39.24a14.42,14.42,0,0,0-2.05-2.4,4.62,4.62,0,0,0-2.49-1.17,2.91,2.91,0,0,0-2.26.63,3.2,3.2,0,0,0-1,1.8,6.78,6.78,0,0,0,.22,3A6.89,6.89,0,0,1,211,300a5.85,5.85,0,0,1-.39-1,6.43,6.43,0,0,1-.36-3.06,3.49,3.49,0,0,1,1-2,3.23,3.23,0,0,1,2.52-.76,4.91,4.91,0,0,1,2.72,1.22,14.26,14.26,0,0,1,2.15,2.46l-.39.23c-1.68-3.49-3.7-7.5-6-11.69-3.8-6.78-7.06-13-9.49-17.5-1.22-2.24-2.23-4-2.94-5.27l-.82-1.42A2.53,2.53,0,0,1,198.74,260.68Z" style="fill:#263238"></path><path d="M229.13,283.63a8.85,8.85,0,0,0-8.07-5l-4.12.37a5.37,5.37,0,0,0-.42,5,29.58,29.58,0,0,0,2.51,4.58,8.33,8.33,0,0,1,1.38,5,3.67,3.67,0,0,0,1.38-2.19,13.24,13.24,0,0,1,.65,9.23,16.92,16.92,0,0,0,6.67-7.28A11.56,11.56,0,0,0,229.13,283.63Z" style="fill:#263238"></path><path d="M220.66,287.38a16,16,0,0,1-.49-2.81,17.82,17.82,0,0,1-.53-2.81,5.29,5.29,0,0,1,1,2.71A5.54,5.54,0,0,1,220.66,287.38Z" style="fill:#455a64"></path><path d="M225.59,292.91a24.65,24.65,0,0,0-1.11-6.37,24.14,24.14,0,0,0-3.22-5.61,5.28,5.28,0,0,1,1.4,1.34,14.12,14.12,0,0,1,3.15,8.71A5.3,5.3,0,0,1,225.59,292.91Z" style="fill:#455a64"></path><path d="M219.37,269.64a13.86,13.86,0,0,0-18.72-7.73,10.86,10.86,0,0,0,2.57,5.17c1.11,1.18,2.41,2.17,3.51,3.35,1.64,1.74,2.85,3.88,4.65,5.45S216,278.32,218,277a4.69,4.69,0,0,0,2-3.4A8.53,8.53,0,0,0,219.37,269.64Z" style="fill:#263238"></path><path d="M206.94,264.1a8.78,8.78,0,0,1,2.12,1,18.89,18.89,0,0,1,4.48,3.53,11.21,11.21,0,0,1,2.7,5,4.85,4.85,0,0,1,.1,2.37c-.09,0-.06-.91-.45-2.28a12.25,12.25,0,0,0-2.74-4.77,23.34,23.34,0,0,0-4.29-3.57A12.53,12.53,0,0,1,206.94,264.1Z" style="fill:#455a64"></path><path d="M221.72,274.59c-1.28-.56-2.74.17-3.9,1s-.84,1.19-2.23,1a4.12,4.12,0,0,0-2.57.83,2.45,2.45,0,0,0-.21,3A3.71,3.71,0,0,0,215.6,282a8,8,0,0,0,3.23-.51,6.78,6.78,0,0,0,3.89-2.68C223.52,277.36,223.2,275.23,221.72,274.59Z" style="fill:#002447"></path><path d="M309.13,295.26,252.85,351.8s-4.6,5.66-8.27,3.52l-40.42-8,43.76-41.18,34-.7-.48-1.62c-.48-1.64.31-2.64,2-3Z" style="fill:#002447"></path><g style="opacity:0.30000000000000004"><path d="M246.86,346.47c10.24-4,18.33-12,26.12-19.79a8.39,8.39,0,0,0,2.7-4.06c.18-1,0-2,.23-2.91.4-1.77,2-3,3.37-4.15a30.85,30.85,0,0,0,7.18-8.95,8.7,8.7,0,0,1,1.59-2.41c1.31-1.22,7.74-3.86,8.3-5.56-2.85,0-10.67,2.64-13.42,3.36-1,.26-1.09.49-1.6,1.37-.36.63.68,1.31.54,2,0,0-3,3.91-4.37,5.43-7.22,7.87-13.91,16.26-21.12,24.13"></path></g><path d="M205.38,346.13l-3.06-6.23,43.18-41.08s24.58-2.88,30.71.58c0,0,4.46-5.16,8.75-7.54s17-5.38,17-5.38l1.56,1.91,2,1.18-4.59,4.05,7-1.07,2.15,2.45-27.87,7.38s-1.75.81-.37,3l-34,.7Z" style="fill:#f5f5f5"></path><path d="M205.38,346.13l.78-.75,2.25-2.15,8.55-8.12L247.77,306l.06-.06h.08l34-.73-.21.37a3.17,3.17,0,0,1-.56-1.71,1.9,1.9,0,0,1,1-1.67h0L310,294.75l-.13.42-2.14-2.45.23.08-7,1.08-.87.13.66-.59,1.05-.93,3.54-3.12,0,.42-2-1.17,0,0,0,0-1.56-1.92.26.09A127.71,127.71,0,0,0,287.62,291a19.7,19.7,0,0,0-6.15,3.68,47.41,47.41,0,0,0-5.07,4.94l-.13.14-.19-.09a13.19,13.19,0,0,0-3.84-1.12,35.77,35.77,0,0,0-4-.43c-2.65-.17-5.28-.14-7.86-.08-5.16.16-10.13.54-14.87,1.06l.13-.06-43.28,41,0-.09,2.26,4.7.55,1.17c.13.26.18.39.18.39l-.19-.35-.57-1.13-2.37-4.71,0-.05,0-.05c7.11-6.79,22.59-21.58,43.08-41.18l.06-.05h.07c4.76-.52,9.73-.92,14.91-1.08,2.58-.07,5.22-.11,7.9.06a37.36,37.36,0,0,1,4.05.43,13.58,13.58,0,0,1,4,1.18l-.31.05a47.59,47.59,0,0,1,5.13-5,26.6,26.6,0,0,1,3-2.16,18,18,0,0,1,3.34-1.61,125.88,125.88,0,0,1,14.42-4.24l.16,0,.11.13,1.55,1.91-.07-.06,2,1.17.32.19-.28.23c-1.16,1-2.34,2.08-3.53,3.12l-1.06.93-.21-.45,7.05-1.07.14,0,.09.11,2.14,2.45.28.31-.41.11-27.86,7.37,0,0a1.42,1.42,0,0,0-.75,1.23,2.69,2.69,0,0,0,.48,1.44l.22.37h-.42l-34,.67.14-.06L217,335.35l-8.59,8-2.24,2.08C205.64,345.91,205.38,346.13,205.38,346.13Z" style="fill:#263238"></path><path d="M281.87,305.4s-.12.2-.39.55l-1.19,1.5c-1.05,1.29-2.58,3.14-4.49,5.42-3.82,4.56-9.15,10.81-15.16,17.61s-11.59,12.84-15.78,17.06c-2.1,2.11-3.85,3.77-5.09,4.88-.6.51-1.08.93-1.46,1.24a4.15,4.15,0,0,1-.53.41,4.11,4.11,0,0,1,.46-.49l1.39-1.31c1.2-1.15,2.9-2.85,5-5,4.12-4.28,9.64-10.36,15.66-17.15s11.38-13,15.27-17.49l4.61-5.32c.53-.59.95-1.07,1.27-1.44A4.84,4.84,0,0,1,281.87,305.4Z" style="fill:#263238"></path><path d="M281.49,304.65c-.13.08-1.07-1.39-2.6-2.86s-3-2.38-2.94-2.52a10.23,10.23,0,0,1,5.54,5.38Z" style="fill:#263238"></path><path d="M298.72,294.52a23.87,23.87,0,0,1-3,.7,68.4,68.4,0,0,0-7,1.9,47.26,47.26,0,0,0-6.68,2.82,28.12,28.12,0,0,1-2.69,1.4s.21-.22.64-.52a19.15,19.15,0,0,1,1.87-1.2,37,37,0,0,1,6.7-3,47.48,47.48,0,0,1,7.11-1.76A14.15,14.15,0,0,1,298.72,294.52Z" style="fill:#263238"></path><path d="M233.68,314.71a2.11,2.11,0,0,1,.33-.38l1-1,3.79-3.69,5.66-5.43,1.64-1.56a7,7,0,0,1,.9-.79,1.57,1.57,0,0,1,.43-.09h.31l.61,0,5-.05c6.82,0,13,0,17.47.08l5.3.1,1.43.06a3,3,0,0,1,.51,0,1.61,1.61,0,0,1-.51.05l-1.44.05-5.29.06-17.47.07-5,0h-.89a.21.21,0,0,1-.15,0s-.07,0-.1,0l-.11.1-.21.2-.43.4-1.66,1.56-5.75,5.36-3.91,3.57-1.08,1C233.83,314.62,233.69,314.73,233.68,314.71Z" style="fill:#263238"></path><path d="M307.9,409.53,337,443.15l25.18-11.31s-55.18-89.48-61-94.56c-7.78-6.82-19.36-2.26-20.71-2s-7.27,18.28-7.27,18.28Z" style="fill:#263238"></path><path d="M216.62,449.92s30.55-35.5,34.65-41.78l15-21.26s13.3,23.74,17.89,33.76c5.05,11,21,37.94,21,37.94l29.92-13.67s-23.83-54.9-25.93-65.17c0,0-10.71-32.71-20.2-44.56-9.16-11.42-30.31.19-40.64,10.58l-.75.75-73.4,64.32-46.46-.61s.45,49.89,30.46,53.91C193.52,468.87,209.51,458.52,216.62,449.92Z" style="fill:#263238"></path><path d="M276.82,330a6,6,0,0,1,1.34-.24,10.5,10.5,0,0,1,3.87.38,14.61,14.61,0,0,1,5.4,2.92,21.58,21.58,0,0,1,5,6.45,93.89,93.89,0,0,1,4,9L300.64,359l9.72,24c6.86,17.06,13.06,32.51,17.56,43.72,2.22,5.58,4,10.1,5.27,13.27.6,1.55,1.07,2.76,1.41,3.62.15.39.26.7.35.94s.11.33.11.33a1.89,1.89,0,0,1-.16-.31c-.1-.23-.23-.54-.4-.92-.35-.85-.86-2.05-1.5-3.59l-5.42-13.2c-4.54-11.2-10.79-26.63-17.7-43.66-3.44-8.53-6.71-16.66-9.69-24.06L296,348.67a95.91,95.91,0,0,0-3.88-9,21.5,21.5,0,0,0-4.86-6.39,14.49,14.49,0,0,0-5.27-3,11,11,0,0,0-3.81-.46C277.28,329.87,276.83,330,276.82,330Z" style="fill:#455a64"></path><path d="M205.26,457.77c4.17,1,8.65,0,12.45-2a45.86,45.86,0,0,0,10.08-8C244.34,431.6,258.21,413,272,394.4l-4.74-11.3c-24.77,19.95-43.12,49.08-62,74.67" style="fill:#263238"></path><path d="M305.14,458.58a2,2,0,0,1-.23-.34l-.66-1c-.58-.9-1.36-2.28-2.4-4-2-3.55-4.94-8.71-8.49-15.15s-7.75-14.15-12.39-22.76c-2.32-4.31-4.75-8.84-7.27-13.55-1.26-2.36-2.54-4.77-3.83-7.21S267.26,389.6,266,387l.46.06-3,4.35c-6.79,9.89-13.45,19.18-19.82,27.4s-12.43,15.36-17.75,21.15-9.89,10.22-13.14,13.19c-1.6,1.51-2.91,2.6-3.78,3.37l-1,.86-.35.28a4.32,4.32,0,0,1,.31-.32l1-.9c.84-.79,2.14-1.91,3.72-3.43,3.19-3,7.71-7.49,13-13.3s11.32-13,17.64-21.19,13-17.52,19.77-27.41l3-4.34.25-.36.21.43c2.5,5,5.18,9.95,7.66,14.66L281.38,415l12.29,22.81c3.53,6.42,6.37,11.61,8.35,15.22,1,1.78,1.77,3.17,2.32,4.09l.61,1.06A2.27,2.27,0,0,1,305.14,458.58Z" style="fill:#455a64"></path><path d="M127.68,410.22s-3.51,5-.9,10.42,50.92,2.09,50.92,2.09l7.2-20.33Z" style="fill:#f5f5f5"></path><path d="M163.69,256.46l-5.87,9.78s-35.46,8.64-34,35.68c1.43,25.86,8.69,57.32,8.69,57.32s-9.65,30.7-5.77,45.21L125,411.39l57.43,9.25s11.21-24.1,13.39-35.6c1.77-9.39.87-35.53.87-35.53s-1.84-33.77-5.73-41.82C187.35,300.3,163.69,256.46,163.69,256.46Z" style="fill:#455a64"></path><path d="M187.13,299.63a7.94,7.94,0,0,1-1-.75,28,28,0,0,0-3-2c-.33-.19-.7-.34-1.08-.53a8.87,8.87,0,0,0-1.23-.41,5.38,5.38,0,0,0-2.85-.05,7.14,7.14,0,0,0-2.82,1.56,17.65,17.65,0,0,0-2.42,2.7l-.24.31-.17-.34c-1.37-2.67-2.86-5.59-4.38-8.67a176.16,176.16,0,0,1-7.7-17.64c-.85-2.31-1.44-4.21-1.83-5.53l-.42-1.54a2,2,0,0,1-.11-.54,2.12,2.12,0,0,1,.21.51q.21.6.51,1.5c.45,1.3,1.1,3.18,2,5.47,1.74,4.6,4.49,10.81,7.82,17.54l4.34,8.68-.41,0a18.06,18.06,0,0,1,2.52-2.76,7.53,7.53,0,0,1,3-1.61,5.72,5.72,0,0,1,3,.1,9.17,9.17,0,0,1,1.28.46c.38.2.76.37,1.09.57A19.26,19.26,0,0,1,187.13,299.63Z" style="fill:#263238"></path><g style="opacity:0.30000000000000004"><path d="M194.09,377.42c-1-.87-2.49-.54-3.75-.17a113.86,113.86,0,0,1-28.1,4.45c-5.45.16-11.11-.11-16-2.58-5.59-2.83-9.39-8.16-13-13.29l-1.7.81c.22,6.75.45,13.61,2.55,20s6.38,12.45,12.61,15.08c6.67,2.8,14.25,1.32,21.49,1.33,6,0,12.37,1,17.5-2.06a16.91,16.91,0,0,0,6.83-8.92,50.7,50.7,0,0,0,2.22-11.22C194.93,379.66,195,378.24,194.09,377.42Z"></path></g><path d="M193.47,363.75s16.82-4.46,17.26-5.8a71.76,71.76,0,0,0,2.53-10.27c.45-3.42,0-13.09,0-13.09s2.83-3,4.17,0,1.49,8.63,3.27,9.23,7.14.59,9.08-1.05,16.21-12.94,17.85-14,4.91-1.94,6.25-.89l-10.12,12.55s12.57-10.76,14.65-11.66a9.76,9.76,0,0,1,4.91-.32s-10.61,13.32-12.55,15-25.59,23.07-28.27,25-30.51,16.16-32.78,17Z" style="fill:#db8a76"></path><path d="M243.76,340.45c.11.13-2.14,2-4.67,4.4a6.34,6.34,0,0,0-.82.94c-.24.37-.52.67-.7,1s-.28.66-.47,1a4.2,4.2,0,0,1-.6.79,2.68,2.68,0,0,1-1.65,1,10.64,10.64,0,0,0,1.37-1.22,4.35,4.35,0,0,0,.5-.76c.16-.28.22-.63.44-1s.48-.67.68-1a7.15,7.15,0,0,1,.88-1,39.51,39.51,0,0,1,3.46-3A6.39,6.39,0,0,1,243.76,340.45Z" style="fill:#a45b4a"></path><path d="M184.66,415.34a4,4,0,0,1-.6,0l-1.72-.05c-1.5,0-3.66-.17-6.32-.38A192.21,192.21,0,0,1,155.33,412c-8-1.58-15.17-3.44-20.3-4.92-2.57-.74-4.64-1.38-6.06-1.84l-1.64-.54a2,2,0,0,1-.55-.23,2.87,2.87,0,0,1,.58.12L129,405l6.1,1.68c5.15,1.39,12.31,3.2,20.3,4.77s15.31,2.56,20.62,3.09c2.66.26,4.81.45,6.3.55l1.71.14A2.36,2.36,0,0,1,184.66,415.34Z" style="fill:#263238"></path><g style="opacity:0.30000000000000004"><path d="M179.88,295.56c-3.23-.47-5.59,1.78-7.4,4.49-4.77-8.75-8.74-18.56-12.67-27.72,2.58,13,7.23,24.62,15.07,35.36-1-3,1-6.53,4-7.7a9.33,9.33,0,0,1,9,1.69C186.87,298.56,183.11,296,179.88,295.56Z"></path></g><path d="M128.82,285c-10.19,9.18-2.81,56.78-2.81,56.78s8.12,38.59,11,47,6.59,7.23,9.32,8.84,30.38-1.77,34.88-2.41,5.3-3.06,6.75-3.7,5.62-28.93,5.62-28.93c-4.2.16-8.69-.08-13,.32a3.56,3.56,0,0,0-3.18,3c-2.66.28-13.79.87-13.79.87A216.54,216.54,0,0,0,157,323.09s-2-9.67-3.63-18.44" style="fill:#455a64"></path><path d="M153.37,304.65s.09.38.25,1.12.38,1.84.68,3.27l2.51,12.46c.24,1.35.62,2.75,1,4.22s.73,3,1.1,4.64c.72,3.24,1.44,6.76,2.1,10.56a216.86,216.86,0,0,1,2.88,25.77l-.23-.2,13.78-.89-.21.2a3.81,3.81,0,0,1,2.93-3.12,38.43,38.43,0,0,1,4.41-.3c3-.07,6,0,9-.1h.29l0,.29c-1.14,7.47-2.33,15.29-4,23.33-.21,1-.44,2-.69,3-.13.5-.26,1-.43,1.51a5.71,5.71,0,0,1-.28.75l-.11.2a.57.57,0,0,1-.17.21.69.69,0,0,1-.2.15l-.16.09c-.78.52-1.47,1.4-2.36,2a8.6,8.6,0,0,1-2.94,1.33,31.47,31.47,0,0,1-3.16.51l-3.17.39-6.4.73c-4.92.53-9.79,1-14.61,1.29a59.88,59.88,0,0,1-7.21.1,4.93,4.93,0,0,1-1.83-.41,9.26,9.26,0,0,0-1.58-.67,12.62,12.62,0,0,1-3.28-1.4,8.89,8.89,0,0,1-2.48-2.56,17.3,17.3,0,0,1-1.59-3.12,59.52,59.52,0,0,1-2-6.53c-1.14-4.35-2.15-8.63-3.12-12.81-1.92-8.36-3.66-16.33-5.26-23.79-.38-1.87-.81-3.68-1.14-5.52s-.49-3.61-.71-5.37q-.63-5.28-1-10.14c-1.07-12.93-.94-23.52.38-30.68a24.92,24.92,0,0,1,2.61-7.92,9.49,9.49,0,0,1,1.31-1.74l.52-.52-.48.56a9.82,9.82,0,0,0-1.25,1.75,25.19,25.19,0,0,0-2.51,7.91c-1.25,7.14-1.33,17.7-.22,30.61.28,3.23.63,6.61,1.06,10.12q.33,2.64.73,5.36c.32,1.79.76,3.63,1.15,5.49,1.61,7.46,3.36,15.42,5.3,23.77,1,4.18,2,8.45,3.13,12.79a60.2,60.2,0,0,0,2,6.47,11.32,11.32,0,0,0,3.88,5.44,11.75,11.75,0,0,0,3.16,1.34,9.3,9.3,0,0,1,1.67.71,4.33,4.33,0,0,0,1.62.34,60.92,60.92,0,0,0,7.14-.09c4.8-.29,9.67-.77,14.59-1.3l6.39-.73,3.16-.39a27.84,27.84,0,0,0,3.1-.5,8,8,0,0,0,2.77-1.25c.85-.57,1.46-1.39,2.4-2,.34-.16.29-.17.43-.42a5.17,5.17,0,0,0,.26-.69c.16-.48.29-1,.42-1.48.25-1,.48-2,.68-3,1.63-8,2.83-15.83,4-23.29l.25.28c-3.07.1-6.08,0-9,.09a37.77,37.77,0,0,0-4.32.28,3.34,3.34,0,0,0-2.57,2.73l0,.18h-.18l-13.8.86h-.21v-.22a217.41,217.41,0,0,0-2.8-25.73c-.64-3.79-1.34-7.32-2-10.56-.35-1.62-.72-3.16-1.07-4.64s-.74-2.87-1-4.23c-1-5.38-1.84-9.6-2.4-12.49-.27-1.43-.47-2.52-.61-3.28S153.37,304.65,153.37,304.65Z" style="fill:#263238"></path><path d="M163.67,366.7c0,.11-1.76.43-4.44,1.52a21.09,21.09,0,0,0-2.14,1c-.77.36-1.54.85-2.36,1.34a33.52,33.52,0,0,0-4.84,3.86,32.74,32.74,0,0,0-3.95,4.78c-.51.81-1,1.57-1.4,2.33a19.65,19.65,0,0,0-1,2.11c-1.17,2.65-1.55,4.42-1.66,4.4a6.2,6.2,0,0,1,.24-1.25,13.16,13.16,0,0,1,.4-1.44,18.13,18.13,0,0,1,.68-1.85,20.58,20.58,0,0,1,1-2.18c.37-.78.87-1.55,1.37-2.38a31.62,31.62,0,0,1,4-4.89,31.1,31.1,0,0,1,5-3.9c.84-.48,1.62-1,2.41-1.32a20.59,20.59,0,0,1,2.2-.95,17.78,17.78,0,0,1,1.88-.62,10.14,10.14,0,0,1,1.45-.36A6.68,6.68,0,0,1,163.67,366.7Z" style="fill:#263238"></path><path d="M163.67,366.7c0,.09-1.26.12-3.26.4a35.07,35.07,0,0,0-7.63,2,30.17,30.17,0,0,0-5.93,3,35,35,0,0,0-3.12,2.4l-.1-.11c.3-.23.45-.33.46-.31s-.09.16-.36.43l-.1-.11a18,18,0,0,1,3-2.65,26.85,26.85,0,0,1,6-3.18,29.46,29.46,0,0,1,7.77-1.84,19.3,19.3,0,0,1,2.42-.11A3.13,3.13,0,0,1,163.67,366.7Z" style="fill:#263238"></path><path d="M176.15,387.6a3.25,3.25,0,0,1-.34-.81,21.26,21.26,0,0,1-.63-2.32,28.11,28.11,0,0,1-.54-7.88,28.64,28.64,0,0,1,1.66-7.73,21.68,21.68,0,0,1,.95-2.2,3.28,3.28,0,0,1,.45-.76c.09,0-.43,1.18-1,3.08a32.19,32.19,0,0,0-1.1,15.42C175.88,386.38,176.23,387.57,176.15,387.6Z" style="fill:#263238"></path></g></svg>